<svg width="36" height="36" viewBox="0 0 36 36" fill="none" xmlns="http://www.w3.org/2000/svg">
<path fill-rule="evenodd" clip-rule="evenodd" d="M18 0.677856C27.665 0.677856 35.5 8.51289 35.5 18.1779C35.5 27.8428 27.665 35.6779 18 35.6779C8.33503 35.6779 0.5 27.8428 0.5 18.1779C0.5 8.51289 8.33503 0.677856 18 0.677856Z" fill="url(#paint0_linear_102_2958)"/>
<path d="M20.2738 35.5309V22.0136H24.0846L24.5897 17.2562H20.2738L20.2802 14.8749C20.2802 13.634 20.3981 12.9694 22.1804 12.9694H24.563V8.21118H20.7514C16.1729 8.21118 14.5617 10.5189 14.5617 14.4005V17.2565H11.7076V22.0144H14.5617V35.3393C15.6736 35.5608 16.823 35.6778 18 35.6778C18.7603 35.6779 19.5198 35.6288 20.2738 35.5309Z" fill="white"/>
<defs>
<linearGradient id="paint0_linear_102_2958" x1="18" y1="0.358989" x2="18" y2="37.1703" gradientUnits="userSpaceOnUse">
<stop stop-color="#00B2FF"/>
<stop offset="1" stop-color="#006AFF"/>
</linearGradient>
</defs>
</svg>
