<svg width="40" height="40" viewBox="0 0 40 40" fill="none" xmlns="http://www.w3.org/2000/svg">
<g filter="url(#filter0_d_102_2961)">
<path d="M11.717 31.0455L12.2889 31.3315C14.6208 32.7185 17.2867 33.4435 19.9999 33.4284C28.3524 33.4094 35.2151 26.5304 35.2151 18.178C35.2151 14.1414 33.6118 10.2649 30.761 7.40732C27.9139 4.52022 24.0241 2.89319 19.9703 2.89319C11.656 2.89319 4.81519 9.73494 4.81519 18.0483C4.81519 18.1141 4.81519 18.1789 4.81614 18.2447C4.84118 21.0712 5.63173 23.8381 7.10372 26.2512L7.48497 26.8231L5.95993 32.4467L11.717 31.0455Z" fill="#00E676"/>
<path d="M32.4576 5.69171C29.2121 2.38043 24.7599 0.522767 20.1238 0.544624H20.0942C10.5465 0.544654 2.6897 8.40153 2.6897 17.9493C2.6897 17.994 2.69065 18.0379 2.69065 18.0827C2.72661 21.1183 3.51245 24.0979 4.97823 26.7564L2.5 35.8114L11.7361 33.4285C14.2875 34.8293 17.156 35.5513 20.0666 35.5254C29.6496 35.473 37.5055 27.5714 37.4998 17.9874C37.5227 13.3827 35.7069 8.95435 32.4576 5.69171ZM20.1238 32.5706C17.5438 32.5841 15.0091 31.8919 12.7941 30.569L12.2222 30.2831L6.72246 31.7128L8.15219 26.2798L7.77094 25.7079C6.35474 23.4212 5.60445 20.7848 5.60441 18.0951C5.60441 10.163 12.1316 3.63572 20.0638 3.63572C27.9959 3.63572 34.5231 10.163 34.5231 18.0951C34.5231 23.0896 31.9353 27.7429 27.6918 30.3784C25.4475 31.816 22.8368 32.5771 20.1715 32.5706M28.5497 21.9906L27.5012 21.5141C27.5012 21.5141 25.9762 20.8468 25.023 20.3703C24.9277 20.3703 24.8324 20.275 24.7371 20.275C24.5021 20.2808 24.2724 20.3464 24.0698 20.4656C23.8668 20.5847 23.9745 20.5609 22.6401 22.0859C22.5496 22.2642 22.3637 22.3757 22.1636 22.3719H22.0682C21.9249 22.3479 21.7921 22.2815 21.687 22.1813L21.2104 21.9906C20.1878 21.5577 19.2515 20.9443 18.4462 20.1797C18.2556 19.989 17.9697 19.7983 17.779 19.6077C17.0734 18.9318 16.4641 18.1621 15.9681 17.3202L15.8727 17.1296C15.7899 17.013 15.7256 16.8844 15.6821 16.7483C15.6572 16.5832 15.6909 16.4145 15.7774 16.2717C15.8642 16.1287 16.1587 15.7951 16.4446 15.5092C16.7306 15.2232 16.7306 15.0326 16.9212 14.842C17.0192 14.7059 17.0869 14.5504 17.1198 14.386C17.1526 14.2216 17.1499 14.0521 17.1118 13.8888C16.6676 12.6555 16.1586 11.4465 15.5868 10.2668C15.4335 10.0285 15.1948 9.85793 14.9196 9.79026H13.8711C13.6805 9.79026 13.4899 9.88557 13.2992 9.88557L13.2039 9.98088C13.0133 10.0762 12.8227 10.2668 12.632 10.3622C12.4414 10.4575 12.3461 10.7434 12.1555 10.934C11.4891 11.7761 11.1204 12.8151 11.107 13.8888C11.1175 14.6441 11.2796 15.3896 11.5835 16.0811L11.6789 16.367C12.5347 18.1968 13.7317 19.8467 15.2055 21.2281L15.5868 21.6094C15.8642 21.8392 16.1195 22.0944 16.3493 22.3719C18.3242 24.0904 20.6699 25.3295 23.2025 25.9939C23.4884 26.0892 23.8697 26.0892 24.1556 26.1845H25.1088C25.607 26.1599 26.0943 26.03 26.5385 25.8032C26.772 25.6974 26.9951 25.5697 27.2057 25.422L27.3964 25.2313C27.587 25.0407 27.7776 24.9454 27.9683 24.7548C28.1546 24.5888 28.3152 24.3961 28.4448 24.1829C28.6278 23.7559 28.7565 23.3079 28.8261 22.8485V22.1813C28.7404 22.1043 28.6441 22.0401 28.5401 21.9906" fill="white"/>
</g>
<defs>
<filter id="filter0_d_102_2961" x="0.5" y="0.544434" width="39" height="39.2668" filterUnits="userSpaceOnUse" color-interpolation-filters="sRGB">
<feFlood flood-opacity="0" result="BackgroundImageFix"/>
<feColorMatrix in="SourceAlpha" type="matrix" values="0 0 0 0 0 0 0 0 0 0 0 0 0 0 0 0 0 0 127 0" result="hardAlpha"/>
<feOffset dy="2"/>
<feGaussianBlur stdDeviation="1"/>
<feComposite in2="hardAlpha" operator="out"/>
<feColorMatrix type="matrix" values="0 0 0 0 0 0 0 0 0 0 0 0 0 0 0 0 0 0 0.25 0"/>
<feBlend mode="normal" in2="BackgroundImageFix" result="effect1_dropShadow_102_2961"/>
<feBlend mode="normal" in="SourceGraphic" in2="effect1_dropShadow_102_2961" result="shape"/>
</filter>
</defs>
</svg>
