<svg width="218" height="101" viewBox="0 0 218 101" fill="none" xmlns="http://www.w3.org/2000/svg">
<path fill-rule="evenodd" clip-rule="evenodd" d="M0.176544 23.4306V23.4596C0.181979 24.068 0.375837 24.2527 0.999078 24.2527H22.6531V78.4991H47.3237C47.9559 78.4991 48.1462 78.3071 48.1462 77.677V24.2527H69.253V78.4991H94.7461V51.375H117.772V78.4991H142.989V2.88161H117.772V29.457H94.7461V2.88161H0.176544V23.4306Z" fill="#2941BE"/>
<path fill-rule="evenodd" clip-rule="evenodd" d="M208.504 63.1561H212.615V67.2667H208.504V63.1561ZM178.275 0.417099H185.375C191.044 0.739423 196.49 1.79512 201.003 3.25644C203.931 4.2035 206.121 5.25014 208.689 6.53219C211.232 7.80157 213.155 9.35343 215.356 10.8274C215.052 11.9664 209.986 18.5795 209.169 19.7112L203.022 28.3615C201.462 27.5376 200.251 26.5615 198.547 25.7104C193.562 23.2224 188.035 20.9643 181.915 20.9643C179.835 20.9643 176.204 20.6112 174.847 22.4003C174.037 23.4669 174.262 24.9807 175.104 25.8517C176.467 27.2587 179.886 27.9794 182.295 28.5281C189.098 30.0799 191.115 30.2393 198.249 32.309C203.058 33.7052 207.294 36.1751 211.131 39.1611C214.608 41.8683 217.275 47.8928 217.275 52.7458V67.5401H212.888V71.9241H208.504V67.5401H204.118V71.9241H199.731V76.0328H204.118V80.6902H199.731V76.3062H195.345V80.6902C191.513 80.6902 191.626 80.9962 191.508 79.5946C190.22 79.5946 188.903 79.7739 187.415 79.8862C178.597 80.5562 168.725 79.4606 160.57 76.5434C156.324 75.026 146.332 70.3432 144.087 66.9914L154.3 54.7341C154.943 54.0097 155.432 53.414 156.063 52.6607C156.813 51.7643 156.793 51.4963 157.791 50.8282C158.817 51.3696 159.384 51.911 160.42 52.5846C166.515 56.5503 175.199 59.5943 182.737 59.5943C184.542 59.5943 190.961 59.8315 190.961 57.128V56.0324C190.961 50.2559 169.044 52.8327 154.541 41.2001C154.077 40.8271 153.755 40.6713 153.334 40.215C148.905 35.391 148.198 31.123 148.198 24.7996C148.198 21.0893 149.878 16.3468 151.325 13.9529C156.842 4.82641 167.43 1.06175 178.275 0.417099ZM199.731 63.1561H204.118V67.2667H199.731V63.1561ZM195.345 58.7722H199.731V62.8827H195.345V58.7722ZM207.681 58.7722H204.118V54.39H208.504V57.9501C208.504 58.582 208.312 58.7722 207.681 58.7722Z" fill="#2941BE"/>
<path fill-rule="evenodd" clip-rule="evenodd" d="M113.659 100.142H115.853V91.3757L117.772 94.1155C118.44 95.1169 119.112 96.0368 119.69 97.1287C120.438 96.5818 122.377 93.2916 123.198 92.1417C123.23 92.0928 123.277 92.0258 123.31 91.9805C123.344 91.9353 123.395 91.8683 123.428 91.8248C123.812 91.325 123.575 91.6365 123.803 91.3757V100.142H125.995V87.5404C123.147 87.5404 123.826 87.0316 121.83 90.2259C121.23 91.1838 120.498 92.7012 119.69 93.2934C119.029 92.0421 118.574 91.3957 117.824 90.2277C115.956 87.3159 116.871 87.5404 113.659 87.5404V100.142Z" fill="#2941BE"/>
<path fill-rule="evenodd" clip-rule="evenodd" d="M100.228 93.5668H96.6648V89.7315C101.455 89.7315 102.147 89.21 102.147 92.1979C102.147 93.0833 101.152 93.5668 100.228 93.5668ZM94.1972 100.142H96.6648V95.7597C99.8698 95.7597 99.1269 95.4537 100.667 97.786C101.162 98.5375 101.948 99.3976 102.147 100.142H104.888C104.481 98.6172 102.319 96.8824 101.874 95.211C105.97 94.8706 105.341 87.5405 101.051 87.5405H94.1972V100.142Z" fill="#2941BE"/>
<path fill-rule="evenodd" clip-rule="evenodd" d="M34.1667 100.142H36.6324V91.6492C37.2629 92.3717 37.7322 92.924 38.3572 93.7624C38.9642 94.5773 39.3917 95.1404 40.0005 95.9553C43.1004 100.107 42.6837 100.142 45.1314 100.142V87.5405H42.9373V96.0332C41.892 94.829 36.8354 88.2938 36.6324 87.5405H34.1667V100.142Z" fill="#2941BE"/>
<path fill-rule="evenodd" clip-rule="evenodd" d="M78.8479 98.2242C73.3511 98.2242 73.246 89.4581 78.8479 89.4581C84.227 89.4581 84.3466 98.2242 78.8479 98.2242ZM78.9983 100.417H78.2265C76.7989 100.336 75.3893 99.7978 74.2425 98.7185C72.0865 96.6886 72.2677 94.9937 72.2677 92.7447C72.2677 91.4554 73.5015 89.6609 74.2425 88.9637C77.9457 85.4797 85.4264 87.3793 85.4264 93.8402C85.4264 97.6954 82.283 100.231 78.9983 100.417Z" fill="#2941BE"/>
<path fill-rule="evenodd" clip-rule="evenodd" d="M211.245 90.2784C211.481 91.2906 212.687 94.0394 213.164 94.9376H209.326C209.584 93.8312 209.805 93.5197 210.225 92.5473C210.408 92.1236 210.54 91.727 210.691 91.3703L211.245 90.2784ZM204.667 100.142H207.132C207.448 98.7964 207.966 98.2604 208.229 97.1287H213.986C214.508 98.1156 214.847 99.1785 215.356 100.142H217.824C217.372 99.289 216.862 98.0196 216.458 97.1232L212.341 87.2652H210.147L206.029 96.848C205.658 97.6918 204.873 99.2546 204.667 100.142Z" fill="#2941BE"/>
<path fill-rule="evenodd" clip-rule="evenodd" d="M140.797 90.5536H141.346C141.464 91.9697 142.663 93.5324 142.989 94.9376H139.152C139.522 93.3495 140.402 92.2449 140.797 90.5536ZM134.492 100.142H136.96C137.223 99.0101 137.742 98.4759 138.056 97.1287H144.087C144.305 98.0612 144.801 99.3487 145.183 100.142H147.651L143.538 90.5536C143.174 89.8021 142.357 88.0764 142.167 87.2652H139.975L135.902 96.8933C135.615 97.594 135.55 97.7299 135.222 98.4071C134.9 99.0789 134.771 99.5624 134.492 100.142Z" fill="#2941BE"/>
<path fill-rule="evenodd" clip-rule="evenodd" d="M185.478 93.8402C185.478 98.0993 188.604 100.24 191.72 100.417H192.571C194.334 100.312 196.003 99.5733 196.99 98.2242L195.566 96.6325C194.45 97.3641 194.197 98.2242 192.057 98.2242C187.028 98.2242 185.917 89.4581 192.604 89.4581C194.135 89.4581 194.425 90.5084 195.621 90.8271C196.068 90.4993 196.666 89.6681 196.99 89.1828C196.161 88.6269 196.124 88.263 195.081 87.8048C190.856 85.9433 185.478 88.5907 185.478 93.8402Z" fill="#2941BE"/>
<path fill-rule="evenodd" clip-rule="evenodd" d="M54.7246 100.142H57.1922V95.211C64.325 95.211 63.4971 95.8122 63.4971 93.02H57.1922V89.7315H64.0442V87.5405H54.7246V100.142Z" fill="#2941BE"/>
<path fill-rule="evenodd" clip-rule="evenodd" d="M155.052 88.9094C155.052 90.1263 156.331 89.7315 159.163 89.7315V100.142H161.63V89.7315H165.468V87.5405H155.052V88.9094Z" fill="#2941BE"/>
<path fill-rule="evenodd" clip-rule="evenodd" d="M174.238 100.142H176.432V87.5405H174.238V100.142Z" fill="#2941BE"/>
<path fill-rule="evenodd" clip-rule="evenodd" d="M22.3795 100.142H24.5717V87.5405H22.3795V100.142Z" fill="#2941BE"/>
<path fill-rule="evenodd" clip-rule="evenodd" d="M212.615 76.8549C212.615 81.5358 211.709 80.6902 217.275 80.6902V76.0328C214.157 76.0328 212.615 75.5909 212.615 76.8549Z" fill="#2941BE"/>
<path fill-rule="evenodd" clip-rule="evenodd" d="M140.248 86.4431C141.641 86.4431 142.372 86.8125 144.087 84.252C143.04 84.0076 142.939 83.6725 141.893 83.4299C141.556 84.6938 140.587 85.1791 140.248 86.4431Z" fill="#2941BE"/>
</svg>
