<svg width="36" height="36" viewBox="0 0 36 36" fill="none" xmlns="http://www.w3.org/2000/svg">
<g clip-path="url(#clip0_102_2955)">
<path d="M12.1682 18.1779C12.1682 14.9563 14.7791 12.3441 18.0006 12.3441C21.2222 12.3441 23.8344 14.9563 23.8344 18.1779C23.8344 21.3994 21.2222 24.0117 18.0006 24.0117C14.7791 24.0117 12.1682 21.3994 12.1682 18.1779ZM9.0146 18.1779C9.0146 23.1409 13.0376 27.1639 18.0006 27.1639C22.9636 27.1639 26.9867 23.1409 26.9867 18.1779C26.9867 13.2149 22.9636 9.19182 18.0006 9.19182C13.0376 9.19182 9.0146 13.2149 9.0146 18.1779ZM25.2424 8.83552C25.2423 9.25086 25.3653 9.65692 25.5959 10.0024C25.8265 10.3478 26.1543 10.6171 26.538 10.7762C26.9217 10.9353 27.3439 10.977 27.7513 10.8962C28.1587 10.8153 28.5329 10.6154 28.8267 10.3219C29.1206 10.0283 29.3207 9.6542 29.4019 9.24687C29.4831 8.83954 29.4417 8.41729 29.2829 8.0335C29.1241 7.64971 28.8551 7.32163 28.5098 7.09074C28.1646 6.85985 27.7586 6.73652 27.3433 6.73636H27.3424C26.7857 6.73662 26.2518 6.95783 25.8581 7.35142C25.4643 7.74501 25.2429 8.27879 25.2424 8.83552ZM10.9306 32.4224C9.22446 32.3447 8.2971 32.0605 7.68082 31.8204C6.86378 31.5024 6.28082 31.1235 5.6679 30.5114C5.05498 29.8994 4.67558 29.317 4.3589 28.4999C4.11866 27.8839 3.83446 26.9563 3.7569 25.2501C3.67206 23.4055 3.65512 22.8513 3.65512 18.178C3.65512 13.5047 3.67346 12.9521 3.7569 11.1059C3.8346 9.39972 4.1209 8.4739 4.3589 7.85608C4.67698 7.03904 5.05582 6.45608 5.6679 5.84316C6.27998 5.23024 6.86238 4.85084 7.68082 4.53416C8.29682 4.29392 9.22446 4.00972 10.9306 3.93216C12.7753 3.84732 13.3294 3.83038 18.0006 3.83038C22.6719 3.83038 23.2266 3.84872 25.0727 3.93216C26.7789 4.00986 27.7047 4.29616 28.3226 4.53416C29.1396 4.85084 29.7226 5.23108 30.3355 5.84316C30.9484 6.45524 31.3264 7.03904 31.6445 7.85608C31.8847 8.47208 32.1689 9.39972 32.2465 11.1059C32.3313 12.9521 32.3483 13.5047 32.3483 18.178C32.3483 22.8513 32.3313 23.4039 32.2465 25.2501C32.1688 26.9563 31.8832 27.8836 31.6445 28.4999C31.3264 29.317 30.9476 29.8999 30.3355 30.5114C29.7234 31.123 29.1396 31.5024 28.3226 31.8204C27.7066 32.0607 26.7789 32.3449 25.0727 32.4224C23.2281 32.5073 22.674 32.5242 18.0006 32.5242C13.3273 32.5242 12.7747 32.5073 10.9306 32.4224ZM10.7857 0.783836C8.92276 0.868676 7.64974 1.16408 6.538 1.59668C5.38664 2.04342 4.41196 2.64276 3.43798 3.6152C2.464 4.58764 1.8662 5.56386 1.41946 6.71522C0.986861 7.82766 0.691461 9.09998 0.606621 10.963C0.520381 12.8289 0.500641 13.4254 0.500641 18.1779C0.500641 22.9303 0.520381 23.5268 0.606621 25.3928C0.691461 27.2559 0.986861 28.5281 1.41946 29.6405C1.8662 30.7912 2.46414 31.7685 3.43798 32.7405C4.41182 33.7125 5.38664 34.311 6.538 34.759C7.65184 35.1916 8.92276 35.487 10.7857 35.5719C12.6526 35.6567 13.2482 35.6779 18.0006 35.6779C22.7531 35.6779 23.3496 35.6581 25.2155 35.5719C27.0787 35.487 28.3508 35.1916 29.4633 34.759C30.6139 34.311 31.5893 33.713 32.5633 32.7405C33.5373 31.7681 34.1338 30.7912 34.5818 29.6405C35.0144 28.5281 35.3112 27.2557 35.3947 25.3928C35.4795 23.5254 35.4992 22.9303 35.4992 18.1779C35.4992 13.4254 35.4795 12.8289 35.3947 10.963C35.3098 9.09984 35.0144 7.82696 34.5818 6.71522C34.1338 5.56456 33.5357 4.58918 32.5633 3.6152C31.5909 2.64122 30.6139 2.04342 29.4647 1.59668C28.3508 1.16408 27.0785 0.867276 25.2169 0.783836C23.351 0.698996 22.7545 0.677856 18.002 0.677856C13.2496 0.677856 12.6526 0.697596 10.7857 0.783836Z" fill="url(#paint0_radial_102_2955)"/>
<path d="M12.1682 18.1779C12.1682 14.9563 14.7791 12.3441 18.0006 12.3441C21.2222 12.3441 23.8344 14.9563 23.8344 18.1779C23.8344 21.3994 21.2222 24.0117 18.0006 24.0117C14.7791 24.0117 12.1682 21.3994 12.1682 18.1779ZM9.0146 18.1779C9.0146 23.1409 13.0376 27.1639 18.0006 27.1639C22.9636 27.1639 26.9867 23.1409 26.9867 18.1779C26.9867 13.2149 22.9636 9.19182 18.0006 9.19182C13.0376 9.19182 9.0146 13.2149 9.0146 18.1779ZM25.2424 8.83552C25.2423 9.25086 25.3653 9.65692 25.5959 10.0024C25.8265 10.3478 26.1543 10.6171 26.538 10.7762C26.9217 10.9353 27.3439 10.977 27.7513 10.8962C28.1587 10.8153 28.5329 10.6154 28.8267 10.3219C29.1206 10.0283 29.3207 9.6542 29.4019 9.24687C29.4831 8.83954 29.4417 8.41729 29.2829 8.0335C29.1241 7.64971 28.8551 7.32163 28.5098 7.09074C28.1646 6.85985 27.7586 6.73652 27.3433 6.73636H27.3424C26.7857 6.73662 26.2518 6.95783 25.8581 7.35142C25.4643 7.74501 25.2429 8.27879 25.2424 8.83552ZM10.9306 32.4224C9.22446 32.3447 8.2971 32.0605 7.68082 31.8204C6.86378 31.5024 6.28082 31.1235 5.6679 30.5114C5.05498 29.8994 4.67558 29.317 4.3589 28.4999C4.11866 27.8839 3.83446 26.9563 3.7569 25.2501C3.67206 23.4055 3.65512 22.8513 3.65512 18.178C3.65512 13.5047 3.67346 12.9521 3.7569 11.1059C3.8346 9.39972 4.1209 8.4739 4.3589 7.85608C4.67698 7.03904 5.05582 6.45608 5.6679 5.84316C6.27998 5.23024 6.86238 4.85084 7.68082 4.53416C8.29682 4.29392 9.22446 4.00972 10.9306 3.93216C12.7753 3.84732 13.3294 3.83038 18.0006 3.83038C22.6719 3.83038 23.2266 3.84872 25.0727 3.93216C26.7789 4.00986 27.7047 4.29616 28.3226 4.53416C29.1396 4.85084 29.7226 5.23108 30.3355 5.84316C30.9484 6.45524 31.3264 7.03904 31.6445 7.85608C31.8847 8.47208 32.1689 9.39972 32.2465 11.1059C32.3313 12.9521 32.3483 13.5047 32.3483 18.178C32.3483 22.8513 32.3313 23.4039 32.2465 25.2501C32.1688 26.9563 31.8832 27.8836 31.6445 28.4999C31.3264 29.317 30.9476 29.8999 30.3355 30.5114C29.7234 31.123 29.1396 31.5024 28.3226 31.8204C27.7066 32.0607 26.7789 32.3449 25.0727 32.4224C23.2281 32.5073 22.674 32.5242 18.0006 32.5242C13.3273 32.5242 12.7747 32.5073 10.9306 32.4224ZM10.7857 0.783836C8.92276 0.868676 7.64974 1.16408 6.538 1.59668C5.38664 2.04342 4.41196 2.64276 3.43798 3.6152C2.464 4.58764 1.8662 5.56386 1.41946 6.71522C0.986861 7.82766 0.691461 9.09998 0.606621 10.963C0.520381 12.8289 0.500641 13.4254 0.500641 18.1779C0.500641 22.9303 0.520381 23.5268 0.606621 25.3928C0.691461 27.2559 0.986861 28.5281 1.41946 29.6405C1.8662 30.7912 2.46414 31.7685 3.43798 32.7405C4.41182 33.7125 5.38664 34.311 6.538 34.759C7.65184 35.1916 8.92276 35.487 10.7857 35.5719C12.6526 35.6567 13.2482 35.6779 18.0006 35.6779C22.7531 35.6779 23.3496 35.6581 25.2155 35.5719C27.0787 35.487 28.3508 35.1916 29.4633 34.759C30.6139 34.311 31.5893 33.713 32.5633 32.7405C33.5373 31.7681 34.1338 30.7912 34.5818 29.6405C35.0144 28.5281 35.3112 27.2557 35.3947 25.3928C35.4795 23.5254 35.4992 22.9303 35.4992 18.1779C35.4992 13.4254 35.4795 12.8289 35.3947 10.963C35.3098 9.09984 35.0144 7.82696 34.5818 6.71522C34.1338 5.56456 33.5357 4.58918 32.5633 3.6152C31.5909 2.64122 30.6139 2.04342 29.4647 1.59668C28.3508 1.16408 27.0785 0.867276 25.2169 0.783836C23.351 0.698996 22.7545 0.677856 18.002 0.677856C13.2496 0.677856 12.6526 0.697596 10.7857 0.783836Z" fill="url(#paint1_radial_102_2955)"/>
</g>
<defs>
<radialGradient id="paint0_radial_102_2955" cx="0" cy="0" r="1" gradientUnits="userSpaceOnUse" gradientTransform="translate(5.1506 35.8432) scale(45.6896 45.6896)">
<stop offset="0.09" stop-color="#FA8F21"/>
<stop offset="0.78" stop-color="#D82D7E"/>
</radialGradient>
<radialGradient id="paint1_radial_102_2955" cx="0" cy="0" r="1" gradientUnits="userSpaceOnUse" gradientTransform="translate(21.7266 37.4112) scale(36.0097 36.0097)">
<stop offset="0.64" stop-color="#8C3AAA" stop-opacity="0"/>
<stop offset="1" stop-color="#8C3AAA"/>
</radialGradient>
<clipPath id="clip0_102_2955">
<rect width="35" height="35" fill="white" transform="translate(0.5 0.677856)"/>
</clipPath>
</defs>
</svg>
